<svg width="32" height="26" viewBox="0 0 32 26" fill="none" xmlns="http://www.w3.org/2000/svg">
<g clip-path="url(#clip0_365_163)">
<path d="M8 0C7.685 0 7.4 0.187891 7.27 0.482422L6.03 3.2957L3.195 2.19375C2.9 2.07695 2.565 2.15312 2.345 2.37656C2.125 2.6 2.05 2.94023 2.165 3.23984L3.25 6.11914L0.475 7.38359C0.185 7.51562 0 7.80508 0 8.125C0 8.44492 0.185 8.73438 0.475 8.86641L3.245 10.1258L2.16 13.0051C2.045 13.3047 2.12 13.6449 2.34 13.8684C2.56 14.0918 2.895 14.168 3.19 14.0512L6.025 12.9492L7.265 15.7625C7.395 16.057 7.68 16.2449 7.995 16.2449C8.31 16.2449 8.595 16.057 8.725 15.7625L9.965 12.9492L12.8 14.0512C13.095 14.168 13.43 14.0918 13.65 13.8684C13.87 13.6449 13.945 13.3047 13.83 13.0051L12.745 10.1258L15.515 8.86641C15.805 8.73438 15.99 8.44492 15.99 8.125C15.99 7.80508 15.805 7.51562 15.515 7.38359L12.745 6.12422L13.83 3.24492C13.945 2.94531 13.87 2.60508 13.65 2.38164C13.43 2.1582 13.095 2.08203 12.8 2.19883L9.97 3.2957L8.73 0.482422C8.6 0.187891 8.315 0 8 0ZM8 4.875C8.84869 4.875 9.66263 5.21741 10.2627 5.8269C10.8629 6.4364 11.2 7.26305 11.2 8.125C11.2 8.98695 10.8629 9.8136 10.2627 10.4231C9.66263 11.0326 8.84869 11.375 8 11.375C7.15131 11.375 6.33737 11.0326 5.73726 10.4231C5.13714 9.8136 4.8 8.98695 4.8 8.125C4.8 7.26305 5.13714 6.4364 5.73726 5.8269C6.33737 5.21741 7.15131 4.875 8 4.875ZM9.6 8.125C9.6 7.69402 9.43143 7.2807 9.13137 6.97595C8.83131 6.67121 8.42435 6.5 8 6.5C7.57565 6.5 7.16869 6.67121 6.86863 6.97595C6.56857 7.2807 6.4 7.69402 6.4 8.125C6.4 8.55598 6.56857 8.9693 6.86863 9.27405C7.16869 9.57879 7.57565 9.75 8 9.75C8.42435 9.75 8.83131 9.57879 9.13137 9.27405C9.43143 8.9693 9.6 8.55598 9.6 8.125ZM25.2 8.9375C25.2 8.03867 25.915 7.3125 26.8 7.3125C27.685 7.3125 28.4 8.03867 28.4 8.9375V11.6492C27.66 12.0402 27.2 12.8223 27.2 13.9141C27.2 14.7672 28 16.1484 29.07 17.3266C29.36 17.6414 29.845 17.6414 30.13 17.3266C31.2 16.1484 32 14.7621 32 13.9141C32 12.8223 31.54 12.0352 30.8 11.6492V8.9375C30.8 6.69297 29.01 4.875 26.8 4.875C24.59 4.875 22.8 6.69297 22.8 8.9375V10.0902C22.31 9.87187 21.77 9.75 21.2 9.75C18.99 9.75 17.2 11.568 17.2 13.8125V14.8992C16.46 15.2902 16 16.0723 16 17.1641C16 18.0172 16.8 19.3984 17.87 20.5766C18.16 20.8914 18.645 20.8914 18.93 20.5766C20 19.3984 20.8 18.0121 20.8 17.1641C20.8 16.0723 20.34 15.2852 19.6 14.8992V13.8125C19.6 12.9137 20.315 12.1875 21.2 12.1875C22.085 12.1875 22.8 12.9137 22.8 13.8125V22.75H1.6C0.715 22.75 0 23.4762 0 24.375C0 25.2738 0.715 26 1.6 26H30.4C31.285 26 32 25.2738 32 24.375C32 23.4762 31.285 22.75 30.4 22.75H25.2V13.8125V8.9375Z" fill="#FDAE36"/>
</g>
<defs>
<clipPath id="clip0_365_163">
<rect width="32" height="26" fill="white"/>
</clipPath>
</defs>
</svg>
