<svg width="38" height="38" viewBox="0 0 38 38" fill="none" xmlns="http://www.w3.org/2000/svg">
<path d="M15.8332 26.1247L20.5832 27.708C20.5832 27.708 32.4582 25.333 34.0415 25.333C35.6248 25.333 35.6248 26.9163 34.0415 28.4997C32.4582 30.083 26.9165 34.833 22.1665 34.833C17.4165 34.833 14.2498 32.458 11.0832 32.458H3.1665" stroke="#FDAE36" stroke-linecap="round" stroke-linejoin="round"/>
<path d="M3.1665 22.9583C4.74984 21.375 7.9165 19 11.0832 19C14.2498 19 21.7707 22.1667 22.9582 23.75C24.1457 25.3333 20.5832 27.7083 20.5832 27.7083" stroke="#FDAE36" stroke-linecap="round" stroke-linejoin="round"/>
<path d="M26.9165 19.7915C28.2282 19.7915 29.2915 18.7282 29.2915 17.4165C29.2915 16.1048 28.2282 15.0415 26.9165 15.0415C25.6048 15.0415 24.5415 16.1048 24.5415 17.4165C24.5415 18.7282 25.6048 19.7915 26.9165 19.7915Z" stroke="#FDAE36"/>
<path d="M17.4165 14.25C18.7282 14.25 19.7915 13.1867 19.7915 11.875C19.7915 10.5633 18.7282 9.5 17.4165 9.5C16.1048 9.5 15.0415 10.5633 15.0415 11.875C15.0415 13.1867 16.1048 14.25 17.4165 14.25Z" stroke="#FDAE36"/>
<path d="M26.9165 7.9165C28.2282 7.9165 29.2915 6.85318 29.2915 5.5415C29.2915 4.22983 28.2282 3.1665 26.9165 3.1665C25.6048 3.1665 24.5415 4.22983 24.5415 5.5415C24.5415 6.85318 25.6048 7.9165 26.9165 7.9165Z" stroke="#FDAE36"/>
</svg>
