<svg width="19" height="19" viewBox="0 0 19 19" fill="none" xmlns="http://www.w3.org/2000/svg">
<path d="M9.50016 17.4168C8.41822 17.4168 7.39565 17.2089 6.43245 16.793C5.46926 16.3771 4.62825 15.8097 3.90941 15.0909C3.19005 14.3721 2.62269 13.5311 2.20733 12.5679C1.79197 11.6047 1.58402 10.5821 1.5835 9.50016C1.5835 8.40502 1.79804 7.37586 2.22712 6.41266C2.6562 5.44947 3.23676 4.61162 3.96879 3.89912C4.70082 3.18662 5.55502 2.62269 6.53141 2.20733C7.5078 1.79197 8.55016 1.58402 9.6585 1.5835C10.7141 1.5835 11.7102 1.76505 12.647 2.12816C13.5838 2.49127 14.4053 2.99266 15.1115 3.63233C15.8171 4.272 16.3779 5.03068 16.7938 5.90837C17.2097 6.78607 17.4174 7.73263 17.4168 8.74808C17.4168 10.2654 16.955 11.43 16.0314 12.2417C15.1078 13.0534 13.9863 13.459 12.6668 13.4585H11.2022C11.0835 13.4585 11.0012 13.4915 10.9552 13.5575C10.9093 13.6234 10.8861 13.696 10.8856 13.7752C10.8856 13.9335 10.9845 14.1612 11.1825 14.4584C11.3804 14.7555 11.4793 15.0951 11.4793 15.4772C11.4793 16.137 11.298 16.6252 10.9355 16.9418C10.5729 17.2585 10.0944 17.4168 9.50016 17.4168ZM5.146 10.2918C5.48905 10.2918 5.77273 10.1797 5.99704 9.95537C6.22134 9.73106 6.3335 9.44738 6.3335 9.10433C6.3335 8.76127 6.22134 8.47759 5.99704 8.25329C5.77273 8.02898 5.48905 7.91683 5.146 7.91683C4.80294 7.91683 4.51926 8.02898 4.29495 8.25329C4.07065 8.47759 3.9585 8.76127 3.9585 9.10433C3.9585 9.44738 4.07065 9.73106 4.29495 9.95537C4.51926 10.1797 4.80294 10.2918 5.146 10.2918ZM7.521 7.12516C7.86405 7.12516 8.14773 7.01301 8.37204 6.7887C8.59634 6.5644 8.7085 6.28072 8.7085 5.93766C8.7085 5.59461 8.59634 5.31093 8.37204 5.08662C8.14773 4.86232 7.86405 4.75016 7.521 4.75016C7.17794 4.75016 6.89426 4.86232 6.66995 5.08662C6.44565 5.31093 6.3335 5.59461 6.3335 5.93766C6.3335 6.28072 6.44565 6.5644 6.66995 6.7887C6.89426 7.01301 7.17794 7.12516 7.521 7.12516ZM11.4793 7.12516C11.8224 7.12516 12.1061 7.01301 12.3304 6.7887C12.5547 6.5644 12.6668 6.28072 12.6668 5.93766C12.6668 5.59461 12.5547 5.31093 12.3304 5.08662C12.1061 4.86232 11.8224 4.75016 11.4793 4.75016C11.1363 4.75016 10.8526 4.86232 10.6283 5.08662C10.404 5.31093 10.2918 5.59461 10.2918 5.93766C10.2918 6.28072 10.404 6.5644 10.6283 6.7887C10.8526 7.01301 11.1363 7.12516 11.4793 7.12516ZM13.8543 10.2918C14.1974 10.2918 14.4811 10.1797 14.7054 9.95537C14.9297 9.73106 15.0418 9.44738 15.0418 9.10433C15.0418 8.76127 14.9297 8.47759 14.7054 8.25329C14.4811 8.02898 14.1974 7.91683 13.8543 7.91683C13.5113 7.91683 13.2276 8.02898 13.0033 8.25329C12.779 8.47759 12.6668 8.76127 12.6668 9.10433C12.6668 9.44738 12.779 9.73106 13.0033 9.95537C13.2276 10.1797 13.5113 10.2918 13.8543 10.2918Z" fill="#FDAE36"/>
</svg>
