<svg width="26" height="26" viewBox="0 0 26 26" fill="none" xmlns="http://www.w3.org/2000/svg">
<g clip-path="url(#clip0_365_165)">
<path d="M11.7812 3.25V1.625C11.7812 1.30177 11.9097 0.991774 12.1382 0.763214C12.3668 0.534654 12.6768 0.40625 13 0.40625C13.3232 0.40625 13.6332 0.534654 13.8618 0.763214C14.0903 0.991774 14.2188 1.30177 14.2188 1.625V3.25C14.2188 3.57323 14.0903 3.88323 13.8618 4.11179C13.6332 4.34035 13.3232 4.46875 13 4.46875C12.6768 4.46875 12.3668 4.34035 12.1382 4.11179C11.9097 3.88323 11.7813 3.57323 11.7812 3.25ZM19.9062 13C19.9062 14.3659 19.5012 15.7012 18.7423 16.8369C17.9835 17.9726 16.9049 18.8578 15.6429 19.3805C14.381 19.9033 12.9923 20.04 11.6527 19.7735C10.313 19.5071 9.0824 18.8493 8.11654 17.8835C7.15069 16.9176 6.49293 15.687 6.22645 14.3473C5.95997 13.0077 6.09674 11.619 6.61946 10.3571C7.14217 9.09514 8.02737 8.01653 9.16309 7.25766C10.2988 6.49879 11.6341 6.09375 13 6.09375C14.8311 6.09563 16.5866 6.82386 17.8814 8.11862C19.1761 9.41339 19.9044 11.1689 19.9062 13ZM17.4688 13C17.4688 12.1162 17.2067 11.2522 16.7156 10.5173C16.2246 9.78241 15.5267 9.20964 14.7101 8.87141C13.8936 8.53318 12.995 8.44469 12.1282 8.61712C11.2613 8.78954 10.4651 9.21515 9.84012 9.84012C9.21515 10.4651 8.78954 11.2613 8.61712 12.1282C8.44469 12.995 8.53318 13.8936 8.87141 14.7101C9.20964 15.5267 9.78241 16.2246 10.5173 16.7156C11.2522 17.2067 12.1162 17.4688 13 17.4688C14.1848 17.4674 15.3206 16.9962 16.1584 16.1584C16.9962 15.3206 17.4674 14.1848 17.4688 13ZM5.23148 6.95602C5.34485 7.06938 5.47944 7.15931 5.62756 7.22067C5.77568 7.28202 5.93444 7.3136 6.09477 7.3136C6.25509 7.3136 6.41385 7.28202 6.56197 7.22067C6.71009 7.15931 6.84468 7.06938 6.95805 6.95602C7.07141 6.84265 7.16134 6.70806 7.2227 6.55994C7.28405 6.41182 7.31563 6.25306 7.31563 6.09273C7.31563 5.93241 7.28405 5.77365 7.2227 5.62553C7.16134 5.47741 7.07141 5.34282 6.95805 5.22945L5.7393 4.0107C5.51034 3.78175 5.19981 3.65312 4.87602 3.65312C4.55222 3.65312 4.24169 3.78175 4.01273 4.0107C3.78378 4.23966 3.65515 4.55019 3.65515 4.87398C3.65515 5.19778 3.78378 5.50831 4.01273 5.73727L5.23148 6.95602ZM5.23148 19.042L4.01273 20.2607C3.89937 20.3741 3.80944 20.5087 3.74808 20.6568C3.68673 20.8049 3.65515 20.9637 3.65515 21.124C3.65515 21.2843 3.68673 21.4431 3.74808 21.5912C3.80944 21.7393 3.89937 21.8739 4.01273 21.9873C4.24169 22.2162 4.55222 22.3448 4.87602 22.3448C5.03634 22.3448 5.1951 22.3133 5.34322 22.2519C5.49134 22.1906 5.62593 22.1006 5.7393 21.9873L6.95805 20.7685C7.187 20.5396 7.31563 20.229 7.31563 19.9052C7.31563 19.5814 7.187 19.2709 6.95805 19.042C6.72909 18.813 6.41856 18.6844 6.09477 18.6844C5.77097 18.6844 5.46044 18.813 5.23148 19.042ZM19.9062 7.3125C20.0663 7.31263 20.2249 7.28121 20.3728 7.22004C20.5208 7.15887 20.6552 7.06916 20.7685 6.95602L21.9873 5.73727C22.1006 5.6239 22.1906 5.48931 22.2519 5.34119C22.3133 5.19307 22.3448 5.03431 22.3448 4.87398C22.3448 4.71366 22.3133 4.5549 22.2519 4.40678C22.1906 4.25866 22.1006 4.12407 21.9873 4.0107C21.8739 3.89734 21.7393 3.80741 21.5912 3.74605C21.4431 3.6847 21.2843 3.65312 21.124 3.65312C20.9637 3.65312 20.8049 3.6847 20.6568 3.74605C20.5087 3.80741 20.3741 3.89734 20.2607 4.0107L19.042 5.22945C18.8705 5.39992 18.7536 5.61752 18.7062 5.8546C18.6587 6.09168 18.6829 6.33752 18.7755 6.56083C18.8682 6.78415 19.0252 6.97487 19.2265 7.10871C19.4279 7.24256 19.6645 7.3135 19.9062 7.3125ZM20.7685 19.044C20.5396 18.815 20.229 18.6864 19.9052 18.6864C19.5814 18.6864 19.2709 18.815 19.042 19.044C18.813 19.2729 18.6844 19.5835 18.6844 19.9073C18.6844 20.2311 18.813 20.5416 19.042 20.7705L20.2607 21.9893C20.4897 22.2183 20.8002 22.3469 21.124 22.3469C21.4478 22.3469 21.7583 22.2183 21.9873 21.9893C22.2162 21.7603 22.3448 21.4498 22.3448 21.126C22.3448 20.8022 22.2162 20.4917 21.9873 20.2627L20.7685 19.044ZM4.46875 13C4.46875 12.6768 4.34035 12.3668 4.11179 12.1382C3.88323 11.9097 3.57323 11.7813 3.25 11.7812H1.625C1.30177 11.7813 0.991774 11.9097 0.763214 12.1382C0.534654 12.3668 0.40625 12.6768 0.40625 13C0.40625 13.3232 0.534654 13.6332 0.763214 13.8618C0.991774 14.0903 1.30177 14.2188 1.625 14.2188H3.25C3.57323 14.2188 3.88323 14.0903 4.11179 13.8618C4.34035 13.6332 4.46875 13.3232 4.46875 13ZM13 21.5312C12.6768 21.5312 12.3668 21.6597 12.1382 21.8882C11.9097 22.1168 11.7813 22.4268 11.7812 22.75V24.375C11.7813 24.6982 11.9097 25.0082 12.1382 25.2368C12.3668 25.4653 12.6768 25.5938 13 25.5938C13.3232 25.5938 13.6332 25.4653 13.8618 25.2368C14.0903 25.0082 14.2188 24.6982 14.2188 24.375V22.75C14.2188 22.4268 14.0903 22.1168 13.8618 21.8882C13.6332 21.6597 13.3232 21.5312 13 21.5312ZM24.375 11.7812H22.75C22.4268 11.7813 22.1168 11.9097 21.8882 12.1382C21.6597 12.3668 21.5312 12.6768 21.5312 13C21.5312 13.3232 21.6597 13.6332 21.8882 13.8618C22.1168 14.0903 22.4268 14.2188 22.75 14.2188H24.375C24.6982 14.2188 25.0082 14.0903 25.2368 13.8618C25.4653 13.6332 25.5938 13.3232 25.5938 13C25.5938 12.6768 25.4653 12.3668 25.2368 12.1382C25.0082 11.9097 24.6982 11.7813 24.375 11.7812Z" fill="#FDAE36"/>
</g>
<defs>
<clipPath id="clip0_365_165">
<rect width="26" height="26" fill="white"/>
</clipPath>
</defs>
</svg>
